<?xml version="1.0" ?><svg data-name="Layer 1" id="Layer_1" viewBox="0 0 256 256" xmlns="http://www.w3.org/2000/svg" xmlns:xlink="http://www.w3.org/1999/xlink"><defs><style>.cls-1,.cls-2{fill:none;}.cls-2,.cls-4{stroke:#000;stroke-miterlimit:10;stroke-width:8px;}.cls-3{clip-path:url(#clip-path);}.cls-4{fill:#fff;}</style><clipPath id="clip-path"><path class="cls-1" d="M171.15,171.17,112.61,229.7a61.05,61.05,0,0,1-86.34-86.34L84.81,84.83C52.25,117.39,138.58,203.73,171.15,171.17Z"/></clipPath></defs><title/><rect class="cls-2" height="287.66" rx="61.05" ry="61.05" transform="translate(128.01 -53.04) rotate(45)" width="122.1" x="66.97" y="-15.83"/><path class="cls-2" d="M84.86,84.83c-32.56,32.56,53.78,118.9,86.34,86.34"/><g class="cls-3"><line class="cls-4" x1="8.39" x2="171.15" y1="84.83" y2="84.83"/><line class="cls-4" x1="8.39" x2="171.15" y1="102.91" y2="102.91"/><line class="cls-4" x1="8.39" x2="171.15" y1="121" y2="121"/><line class="cls-4" x1="8.39" x2="171.15" y1="139.08" y2="139.08"/><line class="cls-4" x1="8.39" x2="171.15" y1="157.17" y2="157.17"/><line class="cls-4" x1="8.39" x2="171.15" y1="175.25" y2="175.25"/><line class="cls-4" x1="8.39" x2="171.15" y1="193.33" y2="193.33"/><line class="cls-4" x1="8.39" x2="171.15" y1="211.42" y2="211.42"/><line class="cls-4" x1="8.39" x2="171.15" y1="229.5" y2="229.5"/><line class="cls-4" x1="8.39" x2="171.15" y1="247.58" y2="247.58"/></g></svg>