<?xml version="1.0" ?><svg height="32" id="svg8" version="1.1" viewBox="0 0 8.4666665 8.4666669" width="32" xmlns="http://www.w3.org/2000/svg" xmlns:cc="http://creativecommons.org/ns#" xmlns:dc="http://purl.org/dc/elements/1.1/" xmlns:inkscape="http://www.inkscape.org/namespaces/inkscape" xmlns:rdf="http://www.w3.org/1999/02/22-rdf-syntax-ns#" xmlns:sodipodi="http://sodipodi.sourceforge.net/DTD/sodipodi-0.dtd" xmlns:svg="http://www.w3.org/2000/svg"><defs id="defs2"/><g id="layer2"><path d="M 24.972656 6.0019531 C 22.221793 6.0019531 19.982422 8.2459321 19.982422 10.998047 L 19.982422 21.001953 C 19.982422 23.754068 22.221793 25.998047 24.972656 25.998047 C 27.72352 25.998047 29.970703 23.754068 29.970703 21.001953 L 29.970703 16.023438 C 29.971042 16.00749 29.971042 15.99251 29.970703 15.976562 L 29.970703 10.998047 C 29.970703 8.2459321 27.72352 6.0019531 24.972656 6.0019531 z M 24.972656 8.0019531 C 26.648937 8.0019531 27.970703 9.3181618 27.970703 10.998047 L 27.970703 15 L 22 15 C 21.994127 14.999718 21.988297 15.000178 21.982422 15 L 21.982422 10.998047 C 21.982422 9.3181618 23.296375 8.0019531 24.972656 8.0019531 z M 9.9941406 10.001953 C 5.5913505 10.001953 2 13.590252 2 17.996094 C 2 22.401935 5.5913505 25.998047 9.9941406 25.998047 C 14.383765 25.998047 17.95912 22.422969 17.980469 18.035156 C 17.981191 18.012534 17.981113 17.991375 17.980469 17.96875 C 17.965454 13.575601 14.387683 10.001953 9.9941406 10.001953 z M 9.9941406 12.003906 C 12.974669 12.003906 15.423195 14.154583 15.894531 17 L 4.0898438 17 C 4.5624404 14.154634 7.0136491 12.003906 9.9941406 12.003906 z M 21.982422 16.998047 C 21.988967 16.997831 21.993394 17.000317 22 17 L 27.970703 17 L 27.970703 21.001953 C 27.970703 22.681839 26.648937 23.998047 24.972656 23.998047 C 23.296375 23.998047 21.982422 22.681839 21.982422 21.001953 L 21.982422 16.998047 z M 4.0917969 19.001953 L 15.892578 19.001953 C 15.418011 21.844669 12.971907 23.998047 9.9941406 23.998047 C 7.0164103 23.998047 4.5676315 21.844619 4.0917969 19.001953 z " id="path952" style="color:#000000;font-style:normal;font-variant:normal;font-weight:normal;font-stretch:normal;font-size:medium;line-height:normal;font-family:sans-serif;font-variant-ligatures:normal;font-variant-position:normal;font-variant-caps:normal;font-variant-numeric:normal;font-variant-alternates:normal;font-feature-settings:normal;text-indent:0;text-align:start;text-decoration:none;text-decoration-line:none;text-decoration-style:solid;text-decoration-color:#000000;letter-spacing:normal;word-spacing:normal;text-transform:none;writing-mode:lr-tb;direction:ltr;text-orientation:mixed;dominant-baseline:auto;baseline-shift:baseline;text-anchor:start;white-space:normal;shape-padding:0;clip-rule:nonzero;display:inline;overflow:visible;visibility:visible;opacity:1;isolation:auto;mix-blend-mode:normal;color-interpolation:sRGB;color-interpolation-filters:linearRGB;solid-color:#000000;solid-opacity:1;vector-effect:none;fill:#000000;fill-opacity:1;fill-rule:nonzero;stroke:none;stroke-width:1.99999988;stroke-linecap:round;stroke-linejoin:round;stroke-miterlimit:4;stroke-dasharray:none;stroke-dashoffset:0;stroke-opacity:1;paint-order:normal;color-rendering:auto;image-rendering:auto;shape-rendering:auto;text-rendering:auto;enable-background:accumulate" transform="scale(0.26458333)"/></g></svg>