<?xml version="1.0" ?><svg id="Layer_1" style="enable-background:new 0 0 64 64;" version="1.1" viewBox="0 0 64 64" xml:space="preserve" xmlns="http://www.w3.org/2000/svg" xmlns:xlink="http://www.w3.org/1999/xlink"><style type="text/css">
	.st0{fill:url(#SVGID_1_);}
	.st1{fill:url(#SVGID_2_);}
	.st2{fill:url(#SVGID_3_);}
	.st3{fill:url(#SVGID_4_);}
	.st4{fill:url(#SVGID_5_);}
	.st5{fill:#FFFFFF;}
	.st6{fill:url(#SVGID_6_);}
	.st7{fill:url(#SVGID_7_);}
	.st8{fill:url(#SVGID_8_);}
	.st9{fill:url(#SVGID_9_);}
	.st10{fill:url(#SVGID_10_);}
	.st11{fill:#FFBF0B;}
	.st12{fill:#1A1A54;}
	.st13{fill:#DC2863;}
	.st14{fill:none;stroke:#1A1A54;stroke-width:3;stroke-linecap:round;stroke-linejoin:round;stroke-miterlimit:10;}
	.st15{fill:#0B85FF;}
	.st16{opacity:0.5;fill:#FFFFFF;}
	.st17{fill:#00AF64;}
	.st18{fill:#00D17C;}
	.st19{fill:none;stroke:#00D17C;stroke-width:3;stroke-linecap:round;stroke-linejoin:round;stroke-miterlimit:10;}
	.st20{fill:#8C5C3B;}
	.st21{opacity:0.1;fill:#1A1A54;}
	.st22{opacity:0.2;fill:#1A1A54;}
	.st23{fill:none;stroke:#FFFFFF;stroke-width:2;stroke-linecap:round;stroke-miterlimit:10;}
	.st24{fill:#E86942;}
	.st25{fill:#6642AD;}
	.st26{fill:url(#SVGID_11_);}
	.st27{fill:url(#SVGID_12_);}
	.st28{fill:url(#SVGID_13_);}
	.st29{opacity:0.2;}
	.st30{fill:none;stroke:#1A1A54;stroke-width:2;stroke-miterlimit:10;}
	.st31{fill:#E8E8EE;}
	.st32{fill:#D1D1DC;}
	.st33{fill:none;stroke:#D1D1DC;stroke-width:1.8172;stroke-linecap:round;stroke-miterlimit:10;}
	.st34{opacity:0.5;fill:#E8E8EE;}
	.st35{fill:none;stroke:#E8E8EE;stroke-width:7.1126;stroke-linecap:round;stroke-linejoin:round;stroke-miterlimit:10;}
	.st36{fill:none;stroke:#D1D1DC;stroke-width:2.3709;stroke-linecap:round;stroke-miterlimit:10;}
	.st37{fill:#F2AD00;}
	.st38{fill:none;stroke:#E8E8EE;stroke-width:5;stroke-linecap:round;stroke-linejoin:round;stroke-miterlimit:10;}
	.st39{fill:none;stroke:#FFFFFF;stroke-width:4;stroke-linecap:square;stroke-miterlimit:10;}
</style><circle class="st11" cx="32" cy="32" r="32"/><circle class="st5" cx="43.5" cy="29.5" r="8.5"/><circle class="st12" cx="43.5" cy="29.5" r="4.5"/><circle class="st5" cx="20.5" cy="29.5" r="8.5"/><circle class="st12" cx="20.5" cy="29.5" r="4.5"/><path class="st15" d="M48.8,46.8L48.8,46.8c-1.6-1.6-1.8-4.1-0.4-5.9l3.5-4.6l3.5,4.6c1.4,1.8,1.2,4.3-0.4,5.9l0,0  C53.4,48.6,50.6,48.6,48.8,46.8z"/><g><path class="st12" d="M43.3,50.7c-2-0.4-3.9-0.9-5.8-1.2c-1.9-0.3-3.7-0.5-5.6-0.5c-1.9,0-3.7,0.2-5.6,0.4   c-1.9,0.3-3.8,0.7-5.8,1.1l0,0c-0.7,0.1-1.4-0.3-1.5-1c-0.1-0.5,0.1-0.9,0.4-1.2c1.7-1.4,3.7-2.5,5.8-3.3c2.1-0.8,4.4-1.1,6.7-1.1   c2.3,0,4.6,0.4,6.7,1.1c2.1,0.8,4.1,1.8,5.9,3.2c0.6,0.5,0.7,1.3,0.2,1.9C44.3,50.7,43.8,50.8,43.3,50.7L43.3,50.7z"/></g><g><path class="st12" d="M20.5,13.3c-0.2,1.2-0.7,2.2-1.4,3c-0.7,0.9-1.6,1.6-2.6,2.1c-1,0.5-2,0.9-3.1,1c-0.5,0.1-1.1,0.1-1.6,0.1   c-0.5,0-1.1-0.1-1.6-0.3c-0.3-0.1-0.5-0.4-0.4-0.7c0-0.2,0.2-0.3,0.3-0.4l0,0c0.9-0.5,1.8-0.8,2.6-1.2c0.8-0.3,1.6-0.8,2.3-1.2   c0.7-0.4,1.5-0.9,2.2-1.4c0.7-0.5,1.4-1.1,2.1-1.7l0.1-0.1c0.3-0.2,0.7-0.2,1,0.1C20.5,12.9,20.5,13.2,20.5,13.3z"/></g><g><path class="st12" d="M44.7,12.8c0.7,0.6,1.4,1.2,2.1,1.7c0.7,0.5,1.4,1,2.2,1.4c0.8,0.4,1.5,0.8,2.3,1.2c0.8,0.4,1.7,0.7,2.6,1.2   l0,0c0.3,0.1,0.4,0.5,0.3,0.8c-0.1,0.2-0.2,0.3-0.4,0.3c-0.5,0.1-1.1,0.2-1.6,0.3c-0.5,0-1.1,0-1.6-0.1c-1.1-0.1-2.2-0.5-3.1-1   c-1-0.5-1.9-1.3-2.6-2.1c-0.7-0.9-1.2-1.8-1.4-3c-0.1-0.4,0.2-0.7,0.6-0.8c0.2,0,0.4,0,0.6,0.2L44.7,12.8z"/></g></svg>