<?xml version="1.0" ?><svg id="Layer_1" style="enable-background:new 0 0 64 64;" version="1.1" viewBox="0 0 64 64" xml:space="preserve" xmlns="http://www.w3.org/2000/svg" xmlns:xlink="http://www.w3.org/1999/xlink"><style type="text/css">
	.st0{fill:url(#SVGID_1_);}
	.st1{fill:url(#SVGID_2_);}
	.st2{fill:url(#SVGID_3_);}
	.st3{fill:url(#SVGID_4_);}
	.st4{fill:url(#SVGID_5_);}
	.st5{fill:#FFFFFF;}
	.st6{fill:url(#SVGID_6_);}
	.st7{fill:url(#SVGID_7_);}
	.st8{fill:url(#SVGID_8_);}
	.st9{fill:url(#SVGID_9_);}
	.st10{fill:url(#SVGID_10_);}
	.st11{fill:#FFBF0B;}
	.st12{fill:#1A1A54;}
	.st13{fill:#DC2863;}
	.st14{fill:none;stroke:#1A1A54;stroke-width:3;stroke-linecap:round;stroke-linejoin:round;stroke-miterlimit:10;}
	.st15{fill:#0B85FF;}
	.st16{opacity:0.5;fill:#FFFFFF;}
	.st17{fill:#00AF64;}
	.st18{fill:#00D17C;}
	.st19{fill:none;stroke:#00D17C;stroke-width:3;stroke-linecap:round;stroke-linejoin:round;stroke-miterlimit:10;}
	.st20{fill:#8C5C3B;}
	.st21{opacity:0.1;fill:#1A1A54;}
	.st22{opacity:0.2;fill:#1A1A54;}
	.st23{fill:none;stroke:#FFFFFF;stroke-width:2;stroke-linecap:round;stroke-miterlimit:10;}
	.st24{fill:#E86942;}
	.st25{fill:#6642AD;}
	.st26{fill:url(#SVGID_11_);}
	.st27{fill:url(#SVGID_12_);}
	.st28{fill:url(#SVGID_13_);}
	.st29{opacity:0.2;}
	.st30{fill:none;stroke:#1A1A54;stroke-width:2;stroke-miterlimit:10;}
	.st31{fill:#E8E8EE;}
	.st32{fill:#D1D1DC;}
	.st33{fill:none;stroke:#D1D1DC;stroke-width:1.8172;stroke-linecap:round;stroke-miterlimit:10;}
	.st34{opacity:0.5;fill:#E8E8EE;}
	.st35{fill:none;stroke:#E8E8EE;stroke-width:7.1126;stroke-linecap:round;stroke-linejoin:round;stroke-miterlimit:10;}
	.st36{fill:none;stroke:#D1D1DC;stroke-width:2.3709;stroke-linecap:round;stroke-miterlimit:10;}
	.st37{fill:#F2AD00;}
	.st38{fill:none;stroke:#E8E8EE;stroke-width:5;stroke-linecap:round;stroke-linejoin:round;stroke-miterlimit:10;}
	.st39{fill:none;stroke:#FFFFFF;stroke-width:4;stroke-linecap:square;stroke-miterlimit:10;}
</style><circle class="st11" cx="32" cy="32" r="32"/><g><path class="st12" d="M48.6,34c-1.6,0.6-3.1,0.7-4.6,0.5c-1.5-0.2-3-0.8-4.3-1.6c-1.3-0.8-2.5-1.8-3.3-3.1   c-0.5-0.6-0.8-1.3-1.1-1.9c-0.3-0.7-0.5-1.4-0.7-2.1c-0.1-0.5,0.2-1,0.7-1.1c0.2,0,0.4,0,0.6,0.1l0.1,0.1c0.6,0.3,1.1,0.8,1.7,1.1   c0.5,0.3,1,0.7,1.5,1.1c1,0.7,2,1.3,2.9,1.9c1,0.6,2,1.1,3,1.6c1,0.5,2.2,0.9,3.3,1.4l0.2,0.1c0.5,0.2,0.8,0.9,0.5,1.4   C49,33.7,48.8,33.9,48.6,34z"/></g><g><path class="st12" d="M8.6,31.9c1.1-0.5,2.3-0.9,3.3-1.4c1-0.5,2-1,3-1.6c1-0.6,1.9-1.2,2.9-1.9c0.5-0.3,1-0.7,1.5-1.1   c0.5-0.4,1-0.8,1.7-1.1l0.1-0.1c0.4-0.2,1-0.1,1.2,0.4c0.1,0.2,0.1,0.4,0.1,0.6c-0.1,0.7-0.4,1.4-0.7,2.1c-0.4,0.6-0.7,1.3-1.1,1.9   c-0.9,1.2-2,2.2-3.3,3.1c-1.3,0.8-2.8,1.3-4.3,1.6c-1.5,0.2-3,0.2-4.6-0.5c-0.6-0.2-0.8-0.9-0.6-1.4c0.1-0.3,0.3-0.5,0.6-0.6   L8.6,31.9z"/></g><g><path class="st12" d="M37.2,52.4c-1.6-0.4-3.1-0.7-4.5-1c-1.4-0.3-2.8-0.4-4.2-0.4c-1.4,0-2.8,0.1-4.2,0.4   c-1.5,0.2-2.9,0.6-4.6,0.9l0,0c-0.7,0.1-1.4-0.3-1.6-1c-0.1-0.4,0-0.9,0.3-1.2c1.2-1.4,2.8-2.4,4.5-3.2c1.7-0.7,3.7-1.2,5.6-1.2   c1.9,0,3.9,0.4,5.6,1.1c1.7,0.7,3.3,1.8,4.6,3.1c0.5,0.6,0.5,1.5-0.1,2C38.1,52.4,37.7,52.5,37.2,52.4L37.2,52.4z"/></g><path class="st15" d="M46.8,45.8L46.8,45.8c-1.6-1.6-1.8-4.1-0.4-5.9l3.5-4.6l3.5,4.6c1.4,1.8,1.2,4.3-0.4,5.9l0,0  C51.4,47.6,48.6,47.6,46.8,45.8z"/></svg>